<?xml version="1.0" encoding="utf-8"?>
<!-- Generator: Adobe Illustrator 25.2.3, SVG Export Plug-In . SVG Version: 6.00 Build 0)  -->
<svg version="1.1" id="图层_2" xmlns="http://www.w3.org/2000/svg" xmlns:xlink="http://www.w3.org/1999/xlink" x="0px" y="0px"
	 viewBox="0 0 145.9 68.5" style="enable-background:new 0 0 145.9 68.5;" xml:space="preserve">
<g id="图层_1">
	<path d="M20.2,12.9c-4.5,0.8-7.4,1.1-7.4,8.9v25.4C12.7,58.5,17,65,29.2,65c8.3,0,12.8-2.3,15.3-7.9c1.5-3.4,1.8-9.5,1.8-18.5V13.3
		c0-7.7-3.1-8.1-7.4-8.9V3.2c3.6,0,5.7,0.1,9.3,0.1s5.7-0.1,9.3-0.1v1.1C52.9,5.2,50,5.5,50,13.3v24.8c0,8.4,0,15.1-2,20
		c-2.8,6.8-9.8,10.3-21.3,10.3s-19.2-6.3-19.2-19V21.9c0-7.7-3.1-8.1-7.4-8.9v-1.1c3.6,0,6.6,0.1,10.2,0.1s6.3-0.1,9.9-0.1
		L20.2,12.9z"/>
	<path d="M112.1,68.3c-10.7-13.5-27-33-39.9-47.7v36.5c0,7.7,3.1,8.1,7.4,8.9v1.1c-3.6,0-5.7-0.1-9.3-0.1s-5.6,0.1-9.2,0.1V66
		c4.5-0.8,7.4-1.1,7.4-8.9V16.4C61.8,9.3,57.2,3.6,51.5,3.6c-1,0-1.9,0.1-2.9,0.4V2.9c3.5-2,6.1-2.9,8.8-2.9
		c6.7,0,36.3,37.7,51.8,56.6V21.8c0-7.7-3.1-8.1-7.4-8.9v-1.1c3.6,0,5.7,0.1,9.3,0.1s5.6-0.1,9.2-0.1v1.2c-4.5,0.8-7.4,1.1-7.4,8.9
		v46.4L112.1,68.3z"/>
	<path d="M125.7,67.1v-1c6.5-0.9,7.2-3.8,7.2-10.8V23.5c0-7-0.7-9.9-7.2-10.7v-1.1c3.6,0,6.5,0.1,10.2,0.1s6.4-0.1,10-0.1v1.2
		c-6.6,0.8-7.4,3.5-7.4,10.7v31.8c0,7.1,0.8,10,7.4,10.8v1c-3.7-0.1-6.6-0.1-10.2-0.1S129.2,67,125.7,67.1z"/>
</g>
</svg>
